<?xml version="1.0" encoding="UTF-8"?>
<svg fill="#6430AB" width="100pt" height="100pt" version="1.1" viewBox="0 0 100 100" xmlns="http://www.w3.org/2000/svg">
 <path d="m50 6.25c-24.145 0-43.75 19.605-43.75 43.75s19.605 43.75 43.75 43.75 43.75-19.605 43.75-43.75-19.605-43.75-43.75-43.75zm0 3.125c22.457 0 40.625 18.168 40.625 40.625s-18.172 40.625-40.625 40.625c-22.457 0-40.625-18.172-40.625-40.625 0-22.457 18.168-40.625 40.625-40.625zm0 6.2539c-12.016 0-21.883 9.8477-21.883 21.867 0 3.4336 2.8203 6.2539 6.2539 6.2539s6.2539-2.8203 6.2539-6.2539c0-5.2695 4.1055-9.3633 9.375-9.3633s9.3789 4.0938 9.3789 9.3633c0 5.2695-4.1094 9.3789-9.3789 9.3789-3.4336 0-6.25 2.8203-6.25 6.25v10.934c0 3.4336 2.8164 6.25 6.25 6.25s6.2539-2.8164 6.2539-6.25l-0.003906-6.043c8.9023-2.7773 15.617-10.75 15.617-20.52 0-12.016-9.8516-21.867-21.871-21.867zm0 3.125c10.309 0 18.746 8.4336 18.746 18.742 0 8.8203-6.1836 16.281-14.418 18.25h-0.003906c-0.69922 0.16797-1.1914 0.78906-1.1992 1.5078v6.8047c0 1.7461-1.3828 3.125-3.1289 3.125s-3.125-1.3789-3.125-3.125l0.003906-10.934c0-1.7422 1.3828-3.1289 3.125-3.1289 6.9219 0 12.504-5.5781 12.504-12.504 0-6.9258-5.5781-12.492-12.504-12.492-6.9219 0-12.504 5.5664-12.504 12.492 0 1.7461-1.3789 3.1289-3.125 3.1289s-3.125-1.3828-3.125-3.1289c0-10.309 8.4453-18.742 18.754-18.742zm0 53.125c-3.4336 0-6.25 2.8203-6.25 6.2539 0 3.4336 2.8164 6.2383 6.25 6.2383s6.2539-2.8047 6.2539-6.2383c0-3.4336-2.8203-6.2539-6.2539-6.2539zm0 3.1289c1.7461 0 3.1289 1.3789 3.1289 3.125 0 1.7461-1.3828 3.1133-3.1289 3.1133s-3.125-1.3672-3.125-3.1133c0-1.7461 1.3789-3.125 3.125-3.125z"/>
</svg>
